<?xml version="1.0" encoding="iso-8859-1"?>
<!-- Generator: Adobe Illustrator 19.0.0, SVG Export Plug-In . SVG Version: 6.00 Build 0)  -->
<svg version="1.1" id="Capa_1" xmlns="http://www.w3.org/2000/svg" xmlns:xlink="http://www.w3.org/1999/xlink" x="0px" y="0px"
	 viewBox="0 0 512.009 512.009" style="enable-background:new 0 0 512.009 512.009;" xml:space="preserve">
<g>
	<path style="fill:#4CAF50;" d="M508.414,312.969c-2.362,6.03-6.085,11.433-10.88,15.787l-0.64,0.64
		c-8.262,7.745-19.182,12.021-30.507,11.947h-61.013c-3.627-0.006-7.002-1.854-8.96-4.907l-10.24-16.427l-43.093-68.907
		c-1.673-2.433-2.144-5.497-1.28-8.32c0.655-2.901,2.518-5.385,5.12-6.827l96-53.333c5.194-2.731,11.618-0.842,14.507,4.267
		l49.493,88.32C513.102,286.922,513.651,300.804,508.414,312.969z"/>
	<path style="fill:#4CAF50;" d="M278.654,87.262l-8.96,12.587l-47.573,66.347c-1.998,2.845-5.271,4.521-8.747,4.48
		c-1.783-0.019-3.537-0.458-5.12-1.28l-117.333-64c-2.729-1.446-4.68-4.022-5.333-7.04c-0.674-3.056,0.028-6.254,1.92-8.747
		l45.653-60.8c1.821-2.486,3.818-4.838,5.973-7.04c12.852-13.557,30.603-21.395,49.28-21.76c1-0.035,2.002,0.036,2.987,0.213
		c22.82,0.688,43.958,12.168,56.96,30.933l30.293,43.947C281.19,78.759,281.19,83.606,278.654,87.262z"/>
	<path style="fill:#4CAF50;" d="M209.96,295.902c-3.247,2.983-7.994,3.662-11.947,1.707l-33.28-16.64l-19.413,39.04l-7.68,15.36
		c-1.84,3.621-5.538,5.922-9.6,5.973H45.694c-11.439,0.138-22.474-4.23-30.72-12.16l-0.427-0.427
		c-4.913-4.509-8.774-10.044-11.307-16.213c-3.274-8.347-4.016-17.474-2.133-26.24c0.83-3.77,2.119-7.424,3.84-10.88l35.413-70.613
		L3.24,167.475c-3.163-2.944-4.106-7.573-2.347-11.52c1.636-3.983,5.507-6.592,9.813-6.613h138.667
		c4.306,0.021,8.177,2.63,9.813,6.613l53.333,128C214.176,288.088,213.164,292.811,209.96,295.902z"/>
</g>
<g>
	<path style="fill:#388E3C;" d="M213.374,330.675v128c0,5.891-4.776,10.667-10.667,10.667h-51.84
		c-24.483,0.057-47.407-12.004-61.227-32.213c-2.987-4.267-5.547-8.107-7.893-11.52l-0.853-0.853c0.213,0-4.053-5.973-8.107-11.947
		c-1.92-2.56-3.413-5.12-4.907-7.04c-5.547-8.107-8.533-12.16-7.253-10.453c-1.067-1.707-2.133-2.987-2.56-3.84l-0.213-0.213
		c-0.853-1.28-1.131-1.707-1.173-1.813l-0.32-0.32l-0.213-0.427c-14.933-21.547-28.8-41.6-41.173-59.52l-0.427-0.427
		c-4.053-5.547-7.68-11.093-11.307-16.213c-3.274-8.347-4.016-17.474-2.133-26.24l28.8,27.52c4.217,4.099,9.907,6.329,15.787,6.187
		h157.013C208.598,320.009,213.374,324.784,213.374,330.675z"/>
	<path style="fill:#388E3C;" d="M447.187,57.395l-53.333,128c-1.636,3.983-5.507,6.592-9.813,6.613
		c-0.647,0.035-1.296-0.037-1.92-0.213l-117.333-21.333c-4.475-0.915-7.94-4.465-8.747-8.96c-0.639-4.604,1.778-9.092,5.973-11.093
		l31.573-15.787l-23.893-34.773l-38.827-56.747c-9.385-13.334-24.655-21.287-40.96-21.333h-50.773
		c10.549-11.167,24.504-18.52,39.68-20.907l9.6-0.64h2.987l137.813-0.213c17.894-0.086,34.638,8.807,44.587,23.68l24.533,37.12
		l34.347-17.067c3.952-1.955,8.7-1.277,11.947,1.707C447.836,48.537,448.849,53.264,447.187,57.395z"/>
	<path style="fill:#388E3C;" d="M508.414,312.969l-10.027,14.507l-0.853,1.28l-0.64,0.64l-74.24,107.733
		c-13.908,20.22-36.898,32.274-61.44,32.213h-19.84v32c-0.034,4.417-2.73,8.376-6.827,10.027c-1.237,0.42-2.534,0.636-3.84,0.64
		c-3.039,0.022-5.931-1.306-7.893-3.627l-85.333-96c-3.385-3.674-3.654-9.243-0.64-13.227l85.333-117.333
		c2.616-3.756,7.357-5.393,11.733-4.053c4.467,1.405,7.495,5.558,7.467,10.24v32h125.013c5.88,0.143,11.569-2.087,15.787-6.187
		l28.8-27.52C512.94,295.239,512.044,304.569,508.414,312.969z"/>
</g>
<g>
</g>
<g>
</g>
<g>
</g>
<g>
</g>
<g>
</g>
<g>
</g>
<g>
</g>
<g>
</g>
<g>
</g>
<g>
</g>
<g>
</g>
<g>
</g>
<g>
</g>
<g>
</g>
<g>
</g>
</svg>
